<svg width="60" height="60" viewBox="0 0 60 60" fill="none" xmlns="http://www.w3.org/2000/svg">
<path d="M17.6813 24.5325L12.5363 29.6775C10.4263 31.7875 9.24097 34.6492 9.24097 37.6331C9.24097 40.6171 10.4263 43.4788 12.5363 45.5887C14.6463 47.6987 17.508 48.8841 20.4919 48.8841C23.4759 48.8841 26.3376 47.6987 28.4475 45.5887L35.3025 38.73C36.5749 37.4575 37.5234 35.8983 38.0685 34.1833C38.6136 32.4683 38.7393 30.6476 38.4351 28.874C38.131 27.1004 37.4058 25.4256 36.3204 23.9903C35.235 22.5549 33.8212 21.4009 32.1975 20.625L30 22.8225C29.7769 23.0459 29.5829 23.2967 29.4225 23.5687C30.677 23.9294 31.8157 24.6112 32.7259 25.5467C33.6361 26.4823 34.2864 27.6392 34.6125 28.9031C34.9387 30.1669 34.9293 31.4941 34.5853 32.7532C34.2413 34.0124 33.5747 35.1599 32.6513 36.0825L25.8 42.9375C24.3927 44.3448 22.484 45.1354 20.4938 45.1354C18.5036 45.1354 16.5949 44.3448 15.1875 42.9375C13.7802 41.5302 12.9896 39.6215 12.9896 37.6312C12.9896 35.641 13.7802 33.7323 15.1875 32.325L18.1613 29.355C17.7405 27.7829 17.5784 26.1566 17.6813 24.5325Z" fill="black"/>
<path d="M24.6976 17.52C23.4252 18.7925 22.4767 20.3517 21.9316 22.0667C21.3865 23.7816 21.2608 25.6023 21.565 27.3759C21.8691 29.1496 22.5943 30.8243 23.6797 32.2597C24.7651 33.695 26.1789 34.8491 27.8026 35.625L30.7088 32.715C29.4374 32.3739 28.2781 31.7042 27.3474 30.7732C26.4168 29.8422 25.7476 28.6826 25.4071 27.411C25.0666 26.1394 25.0668 24.8006 25.4076 23.5291C25.7484 22.2576 26.4179 21.0982 27.3488 20.1675L34.2001 13.3125C35.6074 11.9052 37.5161 11.1145 39.5063 11.1145C41.4965 11.1145 43.4053 11.9052 44.8126 13.3125C46.2199 14.7198 47.0105 16.6285 47.0105 18.6187C47.0105 20.6089 46.2199 22.5176 44.8126 23.925L41.8388 26.895C42.2588 28.47 42.4201 30.1012 42.3188 31.7212L47.4638 26.5762C49.5738 24.4662 50.7591 21.6045 50.7591 18.6206C50.7591 15.6366 49.5738 12.7749 47.4638 10.665C45.3538 8.55499 42.4921 7.36963 39.5082 7.36963C36.5242 7.36963 33.6625 8.55499 31.5526 10.665L24.6976 17.52Z" fill="black"/>
</svg>
