<svg width="86" height="86" viewBox="0 0 86 86" fill="none" xmlns="http://www.w3.org/2000/svg">
<path d="M43.2276 38.2816C43.1651 38.2019 43.0854 38.1374 42.9944 38.093C42.9033 38.0487 42.8034 38.0256 42.7021 38.0256C42.6009 38.0256 42.5009 38.0487 42.4099 38.093C42.3188 38.1374 42.2391 38.2019 42.1767 38.2816L32.8356 50.0997C32.7586 50.1981 32.7109 50.3161 32.6978 50.4403C32.6847 50.5645 32.7068 50.6899 32.7616 50.8021C32.8164 50.9144 32.9017 51.0089 33.0077 51.075C33.1137 51.141 33.2362 51.1759 33.3611 51.1756H39.5245V71.3923C39.5245 71.7593 39.8247 72.0595 40.1917 72.0595H45.1958C45.5628 72.0595 45.8631 71.7593 45.8631 71.3923V51.184H52.0432C52.602 51.184 52.9105 50.5418 52.5686 50.1081L43.2276 38.2816Z" fill="black"/>
<path d="M67.6725 30.5836C63.8527 20.5086 54.1196 13.3444 42.7185 13.3444C31.3174 13.3444 21.5844 20.5003 17.7646 30.5753C10.617 32.4518 5.33765 38.9655 5.33765 46.7053C5.33765 55.9212 12.8021 63.3857 22.0098 63.3857H25.3542C25.7212 63.3857 26.0214 63.0855 26.0214 62.7185V57.7143C26.0214 57.3474 25.7212 57.0471 25.3542 57.0471H22.0098C19.1991 57.0471 16.5552 55.9295 14.587 53.9029C12.627 51.8845 11.5845 49.1656 11.6762 46.3466C11.7513 44.1448 12.5019 42.0764 13.8614 40.3333C15.2542 38.5569 17.2058 37.2641 19.3742 36.6886L22.5352 35.863L23.6945 32.8104C24.4117 30.9089 25.4126 29.1324 26.6719 27.5227C27.9152 25.9273 29.388 24.5248 31.0422 23.361C34.47 20.9506 38.5067 19.6746 42.7185 19.6746C46.9303 19.6746 50.967 20.9506 54.3948 23.361C56.0545 24.5286 57.5224 25.9298 58.7651 27.5227C60.0245 29.1324 61.0253 30.9172 61.7426 32.8104L62.8935 35.8546L66.0461 36.6886C70.5665 37.9063 73.7275 42.018 73.7275 46.7053C73.7275 49.4659 72.6516 52.068 70.7 54.0196C69.7429 54.9823 68.6043 55.7456 67.3502 56.2653C66.0961 56.7849 64.7514 57.0507 63.3939 57.0471H60.0495C59.6825 57.0471 59.3823 57.3474 59.3823 57.7143V62.7185C59.3823 63.0855 59.6825 63.3857 60.0495 63.3857H63.3939C72.6015 63.3857 80.066 55.9212 80.066 46.7053C80.066 38.9739 74.8034 32.4685 67.6725 30.5836Z" fill="black"/>
</svg>
