<svg width="60" height="60" viewBox="0 0 60 60" fill="none" xmlns="http://www.w3.org/2000/svg">
<path d="M0 22.5C0 20.5109 0.790176 18.6032 2.1967 17.1967C3.60322 15.7902 5.51088 15 7.5 15H52.5C54.4891 15 56.3968 15.7902 57.8033 17.1967C59.2098 18.6032 60 20.5109 60 22.5V33.75C60 35.7391 59.2098 37.6468 57.8033 39.0533C56.3968 40.4598 54.4891 41.25 52.5 41.25H34.7588C35.2988 41.8575 35.9963 42.465 36.75 43.0313C37.8275 43.8296 38.9646 44.5442 40.1512 45.1688L40.2038 45.1912L40.215 45.1988C40.5925 45.3879 40.895 45.699 41.0737 46.0815C41.2524 46.4641 41.2967 46.8957 41.1995 47.3066C41.1023 47.7175 40.8693 48.0835 40.5382 48.3455C40.2071 48.6074 39.7972 48.75 39.375 48.75H20.625C20.2028 48.75 19.7929 48.6074 19.4618 48.3455C19.1307 48.0835 18.8977 47.7175 18.8005 47.3066C18.7033 46.8957 18.7476 46.4641 18.9263 46.0815C19.105 45.699 19.4075 45.3879 19.785 45.1988L19.7962 45.1912L19.8488 45.165C20.1893 44.9903 20.5245 44.8052 20.8538 44.61C21.6807 44.1278 22.4806 43.6008 23.25 43.0313C24 42.4688 24.7013 41.8575 25.2412 41.25H7.5C5.51088 41.25 3.60322 40.4598 2.1967 39.0533C0.790176 37.6468 0 35.7391 0 33.75V22.5ZM7.5 18.75C6.50544 18.75 5.55161 19.1451 4.84835 19.8484C4.14509 20.5516 3.75 21.5054 3.75 22.5V33.75C3.75 34.7446 4.14509 35.6984 4.84835 36.4016C5.55161 37.1049 6.50544 37.5 7.5 37.5H52.5C53.4946 37.5 54.4484 37.1049 55.1516 36.4016C55.8549 35.6984 56.25 34.7446 56.25 33.75V22.5C56.25 21.5054 55.8549 20.5516 55.1516 19.8484C54.4484 19.1451 53.4946 18.75 52.5 18.75H7.5Z" fill="black"/>
<path d="M30 24.375C29.0054 24.375 28.0516 24.7701 27.3484 25.4734C26.6451 26.1766 26.25 27.1304 26.25 28.125C26.25 29.1196 26.6451 30.0734 27.3484 30.7766C28.0516 31.4799 29.0054 31.875 30 31.875C30.9946 31.875 31.9484 31.4799 32.6516 30.7766C33.3549 30.0734 33.75 29.1196 33.75 28.125C33.75 27.1304 33.3549 26.1766 32.6516 25.4734C31.9484 24.7701 30.9946 24.375 30 24.375ZM22.5 28.125C22.5 26.1359 23.2902 24.2282 24.6967 22.8217C26.1032 21.4152 28.0109 20.625 30 20.625C31.9891 20.625 33.8968 21.4152 35.3033 22.8217C36.7098 24.2282 37.5 26.1359 37.5 28.125C37.5 30.1141 36.7098 32.0218 35.3033 33.4283C33.8968 34.8348 31.9891 35.625 30 35.625C28.0109 35.625 26.1032 34.8348 24.6967 33.4283C23.2902 32.0218 22.5 30.1141 22.5 28.125ZM48.75 28.125C48.75 28.6223 48.5525 29.0992 48.2008 29.4508C47.8492 29.8025 47.3723 30 46.875 30C46.3777 30 45.9008 29.8025 45.5492 29.4508C45.1975 29.0992 45 28.6223 45 28.125C45 27.6277 45.1975 27.1508 45.5492 26.7992C45.9008 26.4475 46.3777 26.25 46.875 26.25C47.3723 26.25 47.8492 26.4475 48.2008 26.7992C48.5525 27.1508 48.75 27.6277 48.75 28.125Z" fill="black"/>
</svg>
