<svg width="60" height="60" viewBox="0 0 60 60" fill="none" xmlns="http://www.w3.org/2000/svg">
<path d="M31.8749 24.375C31.8749 23.8777 31.6774 23.4008 31.3258 23.0492C30.9741 22.6975 30.4972 22.5 29.9999 22.5C29.5026 22.5 29.0257 22.6975 28.6741 23.0492C28.3225 23.4008 28.1249 23.8777 28.1249 24.375V38.5988L23.8274 34.2975C23.6531 34.1232 23.4461 33.9849 23.2184 33.8905C22.9906 33.7962 22.7465 33.7476 22.4999 33.7476C22.2534 33.7476 22.0093 33.7962 21.7815 33.8905C21.5537 33.9849 21.3468 34.1232 21.1724 34.2975C20.9981 34.4718 20.8598 34.6788 20.7655 34.9066C20.6711 35.1343 20.6226 35.3785 20.6226 35.625C20.6226 35.8715 20.6711 36.1157 20.7655 36.3434C20.8598 36.5712 20.9981 36.7782 21.1724 36.9525L28.6724 44.4525C28.8466 44.6271 29.0535 44.7656 29.2813 44.8602C29.5091 44.9547 29.7533 45.0034 29.9999 45.0034C30.2466 45.0034 30.4908 44.9547 30.7186 44.8602C30.9463 44.7656 31.1533 44.6271 31.3274 44.4525L38.8274 36.9525C39.0018 36.7782 39.14 36.5712 39.2344 36.3434C39.3287 36.1157 39.3773 35.8715 39.3773 35.625C39.3773 35.3785 39.3287 35.1343 39.2344 34.9066C39.14 34.6788 39.0018 34.4718 38.8274 34.2975C38.6531 34.1232 38.4461 33.9849 38.2184 33.8905C37.9906 33.7962 37.7465 33.7476 37.4999 33.7476C37.2534 33.7476 37.0093 33.7962 36.7815 33.8905C36.5537 33.9849 36.3468 34.1232 36.1724 34.2975L31.8749 38.5988V24.375Z" fill="black"/>
<path d="M52.5 52.5V16.875L35.625 0H15C13.0109 0 11.1032 0.790176 9.6967 2.1967C8.29018 3.60322 7.5 5.51088 7.5 7.5V52.5C7.5 54.4891 8.29018 56.3968 9.6967 57.8033C11.1032 59.2098 13.0109 60 15 60H45C46.9891 60 48.8968 59.2098 50.3033 57.8033C51.7098 56.3968 52.5 54.4891 52.5 52.5ZM35.625 11.25C35.625 12.7418 36.2176 14.1726 37.2725 15.2275C38.3274 16.2824 39.7582 16.875 41.25 16.875H48.75V52.5C48.75 53.4946 48.3549 54.4484 47.6516 55.1516C46.9484 55.8549 45.9946 56.25 45 56.25H15C14.0054 56.25 13.0516 55.8549 12.3483 55.1516C11.6451 54.4484 11.25 53.4946 11.25 52.5V7.5C11.25 6.50544 11.6451 5.55161 12.3483 4.84835C13.0516 4.14509 14.0054 3.75 15 3.75H35.625V11.25Z" fill="black"/>
</svg>
