<svg width="15" height="14" viewBox="0 0 15 14" fill="none" xmlns="http://www.w3.org/2000/svg">
<path d="M14.017 7.78232C14.1622 7.70957 14.2842 7.59787 14.3695 7.45972C14.4548 7.32156 14.5 7.1624 14.5 7.00004C14.5 6.83767 14.4548 6.67851 14.3695 6.54036C14.2842 6.4022 14.1622 6.2905 14.017 6.21775L1.76652 0.0924925C1.61462 0.0164901 1.44389 -0.013663 1.27515 0.00571153C1.10641 0.025086 0.946953 0.0931506 0.816236 0.201602C0.685518 0.310054 0.58919 0.454204 0.539 0.616468C0.488811 0.778733 0.486931 0.952096 0.533588 1.11541L1.78402 5.4906C1.83632 5.67346 1.94678 5.8343 2.09867 5.94877C2.25056 6.06324 2.43561 6.12511 2.6258 6.125L6.6256 6.125C6.85767 6.125 7.08024 6.21719 7.24434 6.38129C7.40844 6.54539 7.50063 6.76796 7.50063 7.00004C7.50063 7.23211 7.40844 7.45468 7.24434 7.61878C7.08024 7.78288 6.85767 7.87507 6.6256 7.87507L2.6258 7.87507C2.43561 7.87497 2.25056 7.93683 2.09867 8.0513C1.94678 8.16577 1.83632 8.32661 1.78402 8.50948L0.534462 12.8847C0.487712 13.0479 0.48948 13.2213 0.539551 13.3835C0.589622 13.5458 0.685831 13.69 0.816447 13.7986C0.947062 13.9071 1.10644 13.9753 1.27514 13.9948C1.44384 14.0143 1.61457 13.9843 1.76652 13.9085L14.017 7.7832L14.017 7.78232Z" fill="#8E8E9E"/>
</svg>
